# xmcd CD database file
# Copyright (C) 1997 Ti Kan
# 
# Track frame offsets:
#     150
#     12192
#     23337
#     36200
#     49575
#     62225
#     76392
#     91562
#     103980
#     115007
#     127595
#     138725
#     154725
#     166425
# 
# Disc length: 2381 seconds
# 
# Revision: 1
# Processed by: cddbd v1.4b41PL1 Copyright (c) Steve Scherf et al.
# Submitted via: DiscPlay 4.0.3
# 
DISCID=a3094b0e
DTITLE=Des O'Connor - The Best Of Des O'Connor
DYEAR=1900
DGENRE=
TTITLE0=Careless Hands
TTITLE1=One Two Three O'Leary
TTITLE2=Your Cheating Heart
TTITLE3=Didn't We
TTITLE4=I Pretend
TTITLE5=To Be The One You LOve
TTITLE6=Try To Remember
TTITLE7=When Your Smiling
TTITLE8=Everybody's Talkin'
TTITLE9=The Importance Of Your Love
TTITLE10=Raindrops Keep Fallin' On My Head
TTITLE11=For The Good Times
TTITLE12=All I Need Is You
TTITLE13=You Always Hurt The One You Love
EXTD=
EXTT0=
EXTT1=
EXTT2=
EXTT3=
EXTT4=
EXTT5=
EXTT6=
EXTT7=
EXTT8=
EXTT9=
EXTT10=
EXTT11=
EXTT12=
EXTT13=
PLAYORDER=
